<svg xmlns="http://www.w3.org/2000/svg" xmlns:xlink="http://www.w3.org/1999/xlink" viewBox="0 0 203.08 149.5">
  <defs>
    <style>
      .cls-1,
      .cls-2 {
        fill: #fff;
        stroke-miterlimit: 10;
        stroke-width: 4px;
      }
    </style>

  </defs>
  <g id="Layer_2" data-name="Layer 2">
    <g id="Layer_1-2" data-name="Layer 1">
      <path class="cls-1" d="M117,2l-1,68Q105.6,59.46,95.19,48.91V2Z" />
      <path class="cls-2" d="M114,92.49q-13.5-18.36-27-36.7c-.28-.22-.75-.59-1.39-1.06C80.33,50.86,63.34,40,42,44.76A51.7,51.7,0,0,0,12,64.07C0,80.18,1.88,98,2.45,102.69c.49,4.07,2.84,23.59,19.09,35.87,21.33,16.09,48.36,5.9,53.16,4.16A62.28,62.28,0,0,0,94,131.51a66.35,66.35,0,0,0,6.74-6.65l-17.83-18A36.75,36.75,0,0,1,74.13,118a32.49,32.49,0,0,1-8.95,5.42c-2.48,1-17.13,6.54-30-2.76C21.65,110.84,22.81,94.21,22.91,93A31.63,31.63,0,0,1,42,66.83H67.91q6.41,7.47,12.79,15,12.74,14.89,25.48,29.78c.78.9,1.54,1.81,2.32,2.7l20.78,24.3,69.55-84.14H172.92l-46.37,55.17q-5.44-7.4-10.85-14.77L114,92.49" />
    </g>
  </g>
</svg>